<?xml version="1.0" standalone="no"?>
<!DOCTYPE svg PUBLIC "-//W3C//DTD SVG 20010904//EN"
 "http://www.w3.org/TR/2001/REC-SVG-20010904/DTD/svg10.dtd">
<svg version="1.0" xmlns="http://www.w3.org/2000/svg"
 width="16.000000pt" height="16.000000pt" viewBox="0 0 16.000000 16.000000"
 preserveAspectRatio="xMidYMid meet">

<g transform="translate(0.000000,16.000000) scale(0.100000,-0.100000)"
fill="#000000" stroke="none">
<path d="M61 118 c0 -13 3 -17 6 -10 2 6 18 12 34 12 22 0 29 -5 29 -19 0 -12
-8 -21 -22 -24 -20 -4 -19 -4 5 -6 25 -1 27 2 27 34 0 34 -1 35 -40 35 -35 0
-40 -3 -39 -22z"/>
<path d="M20 75 l0 -45 50 0 c41 0 50 3 49 18 0 10 -3 12 -6 5 -2 -8 -22 -13
-44 -13 -37 0 -39 2 -39 30 0 17 5 30 10 30 6 0 10 5 10 10 0 6 -7 10 -15 10
-11 0 -15 -12 -15 -45z"/>
<path d="M53 83 c4 -3 1 -13 -6 -22 -10 -14 -10 -14 4 -4 9 7 19 10 22 6 4 -3
7 1 7 10 0 10 -7 17 -17 17 -9 0 -13 -3 -10 -7z"/>
</g>
</svg>
